<svg xmlns="http://www.w3.org/2000/svg" width="1600" height="1138" viewBox="0 0 1800 1280" preserveAspectRatio="xMidYMid meet" role="img" aria-labelledby="title desc">
  <title id="title">commerce-performance-marketing-kr 도메인 문서 전체 구조도</title>
  <desc id="desc">8개 도메인 문서의 역할, 내용 분류, 연결관계, 검증과 확장 흐름을 시각화한 SVG 구조도</desc>
  <defs>
    <marker id="arrow" markerWidth="12" markerHeight="12" refX="10" refY="6" orient="auto" markerUnits="strokeWidth">
      <path d="M2,2 L10,6 L2,10 Z" fill="#334155"/>
    </marker>
    <marker id="arrow-soft" markerWidth="12" markerHeight="12" refX="10" refY="6" orient="auto" markerUnits="strokeWidth">
      <path d="M2,2 L10,6 L2,10 Z" fill="#64748b"/>
    </marker>
    <style>
      .bg { fill: #f8fafc; }
      .title { font: 800 34px "Apple SD Gothic Neo", "Noto Sans KR", sans-serif; fill: #0f172a; }
      .subtitle { font: 500 17px "Apple SD Gothic Neo", "Noto Sans KR", sans-serif; fill: #475569; }
      .section-title { font: 800 20px "Apple SD Gothic Neo", "Noto Sans KR", sans-serif; fill: #0f172a; }
      .doc-title { font: 800 17px "Apple SD Gothic Neo", "Noto Sans KR", sans-serif; fill: #0f172a; }
      .doc-sub { font: 600 13px "Apple SD Gothic Neo", "Noto Sans KR", sans-serif; fill: #334155; }
      .tiny { font: 500 12px "Apple SD Gothic Neo", "Noto Sans KR", sans-serif; fill: #475569; }
      .tiny-strong { font: 800 12px "Apple SD Gothic Neo", "Noto Sans KR", sans-serif; fill: #334155; }
      .lane-title { font: 800 14px "Apple SD Gothic Neo", "Noto Sans KR", sans-serif; fill: #0f172a; }
      .chip-text { font: 700 13px "Apple SD Gothic Neo", "Noto Sans KR", sans-serif; fill: #1e293b; }
      .note { font: 600 12px "Apple SD Gothic Neo", "Noto Sans KR", sans-serif; fill: #64748b; }
      .flow { fill: none; stroke: #334155; stroke-width: 2.2; marker-end: url(#arrow); }
      .flow-soft { fill: none; stroke: #64748b; stroke-width: 1.8; marker-end: url(#arrow-soft); }
      .flow-dash { fill: none; stroke: #64748b; stroke-width: 1.7; stroke-dasharray: 8 7; marker-end: url(#arrow-soft); }
      .frame { fill: #ffffff; stroke: #cbd5e1; stroke-width: 1.5; }
      .doc-scope { fill: #dbeafe; stroke: #2563eb; }
      .doc-concept { fill: #dcfce7; stroke: #16a34a; }
      .doc-structure { fill: #fef3c7; stroke: #d97706; }
      .doc-rule { fill: #fce7f3; stroke: #db2777; }
      .doc-verify { fill: #ede9fe; stroke: #7c3aed; }
      .doc-evolve { fill: #ccfbf1; stroke: #0f766e; }
      .guard { fill: #fff7ed; stroke: #ea580c; }
      .axis { fill: #ffffff; stroke: #cbd5e1; }
      .axis-blue { fill: #eff6ff; stroke: #60a5fa; }
      .axis-green { fill: #ecfdf5; stroke: #34d399; }
      .axis-yellow { fill: #fffbeb; stroke: #f59e0b; }
      .axis-pink { fill: #fdf2f8; stroke: #f472b6; }
      .axis-violet { fill: #f5f3ff; stroke: #a78bfa; }
      .axis-teal { fill: #f0fdfa; stroke: #2dd4bf; }
      .axis-red { fill: #fef2f2; stroke: #f87171; }
      .shadow { filter: drop-shadow(0 8px 16px rgba(15, 23, 42, 0.10)); }
    </style>
  </defs>

  <rect class="bg" x="0" y="0" width="1800" height="1280"/>
  <text class="title" x="64" y="64">commerce-performance-marketing-kr 도메인 문서 전체 구조도</text>
  <text class="subtitle" x="64" y="96">국내 커머스 성과 마케팅 패키지의 8개 문서가 범위 정의, 개념 표준화, 구조화, 판단, 검증, 확장 통제를 어떻게 분담하는지 보여준다.</text>

  <rect class="frame shadow" x="48" y="126" width="1704" height="192" rx="18"/>
  <text class="section-title" x="76" y="164">1. 문서 역할 흐름</text>

  <g transform="translate(88 190)">
    <rect class="doc-scope" x="0" y="0" width="180" height="86" rx="16"/>
    <text class="doc-title" x="20" y="30">범위 설정</text>
    <text class="doc-sub" x="20" y="54">domain_scope</text>
    <text class="tiny" x="20" y="73">무엇을 다루는가</text>

    <path class="flow" d="M190,43 H260"/>
    <rect class="doc-concept" x="270" y="0" width="180" height="86" rx="16"/>
    <text class="doc-title" x="290" y="30">언어 표준</text>
    <text class="doc-sub" x="290" y="54">concepts</text>
    <text class="tiny" x="290" y="73">무슨 뜻인가</text>

    <path class="flow" d="M460,43 H530"/>
    <rect class="doc-structure" x="540" y="0" width="180" height="86" rx="16"/>
    <text class="doc-title" x="560" y="30">구조 명세</text>
    <text class="doc-sub" x="560" y="54">structure_spec</text>
    <text class="tiny" x="560" y="73">무엇을 갖춰야 하나</text>

    <path class="flow" d="M730,43 H800"/>
    <rect class="doc-rule" x="810" y="0" width="180" height="86" rx="16"/>
    <text class="doc-title" x="830" y="30">판단 규칙</text>
    <text class="doc-sub" x="830" y="54">logic_rules</text>
    <text class="tiny" x="830" y="73">어떻게 판단하나</text>

    <path class="flow" d="M1000,43 H1070"/>
    <rect class="doc-rule" x="1080" y="0" width="180" height="86" rx="16"/>
    <text class="doc-title" x="1100" y="30">의존 관계</text>
    <text class="doc-sub" x="1100" y="54">dependency_rules</text>
    <text class="tiny" x="1100" y="73">무엇이 선행되나</text>

    <path class="flow" d="M1270,43 H1340"/>
    <rect class="doc-verify" x="1350" y="0" width="180" height="86" rx="16"/>
    <text class="doc-title" x="1370" y="30">검증 질문</text>
    <text class="doc-sub" x="1370" y="54">competency_qs</text>
    <text class="tiny" x="1370" y="73">답할 수 있는가</text>
  </g>

  <path class="flow-dash" d="M1440,278 C1440,310 650,310 650,278"/>
  <text class="note" x="910" y="304">검증 결과는 구조와 규칙을 다시 보정한다</text>

  <rect class="frame shadow" x="48" y="348" width="1704" height="462" rx="18"/>
  <text class="section-title" x="76" y="386">2. 8개 문서의 상호작용</text>

  <g id="document-map">
    <rect class="doc-scope shadow" x="92" y="430" width="248" height="154" rx="18"/>
    <text class="doc-title" x="120" y="462">domain_scope.md</text>
    <text class="doc-sub" x="120" y="488">도메인 경계와 판단 축</text>
    <text class="tiny" x="120" y="516">커머스 정의, 포함/제외 범위</text>
    <text class="tiny" x="120" y="537">핵심 변동 축, 필수 개념 범주</text>
    <text class="tiny" x="120" y="558">운영 제약, 편향 감지</text>

    <rect class="doc-concept shadow" x="390" y="430" width="248" height="154" rx="18"/>
    <text class="doc-title" x="418" y="462">concepts.md</text>
    <text class="doc-sub" x="418" y="488">용어 사전과 해석 원칙</text>
    <text class="tiny" x="418" y="516">결제액/매출, 주문, 고객 상태</text>
    <text class="tiny" x="418" y="537">채널, 자연 발견, 측정 권위</text>
    <text class="tiny" x="418" y="558">동음이의어와 근접어 정리</text>

    <rect class="doc-structure shadow" x="688" y="430" width="248" height="154" rx="18"/>
    <text class="doc-title" x="716" y="462">structure_spec.md</text>
    <text class="doc-sub" x="716" y="488">필수 필드와 관계 구조</text>
    <text class="tiny" x="716" y="516">판매 환경, 상품, 고객 여정</text>
    <text class="tiny" x="716" y="537">채널, 캠페인, 전환, 데이터 권위</text>
    <text class="tiny" x="716" y="558">리포트, 준수, 고립 노드 금지</text>

    <rect class="doc-rule shadow" x="986" y="430" width="248" height="154" rx="18"/>
    <text class="doc-title" x="1014" y="462">logic_rules.md</text>
    <text class="doc-sub" x="1014" y="488">지표와 의사결정 규칙</text>
    <text class="tiny" x="1014" y="516">ROAS, CAC/LTV, 예산 판단</text>
    <text class="tiny" x="1014" y="537">앱 측정, 상품 피드, 증분성</text>
    <text class="tiny" x="1014" y="558">준수 판단과 충돌 해결</text>

    <rect class="doc-rule shadow" x="1284" y="430" width="248" height="154" rx="18"/>
    <text class="doc-title" x="1312" y="462">dependency_rules.md</text>
    <text class="doc-sub" x="1312" y="488">선행 조건과 권위 순서</text>
    <text class="tiny" x="1312" y="516">주문/정산/마진 권위</text>
    <text class="tiny" x="1312" y="537">앱, 채널, 피드, 어트리뷰션 의존</text>
    <text class="tiny" x="1312" y="558">순환 의존과 우선순위</text>

    <rect class="doc-verify shadow" x="390" y="628" width="248" height="132" rx="18"/>
    <text class="doc-title" x="418" y="660">competency_qs.md</text>
    <text class="doc-sub" x="418" y="686">63개 검증 질문</text>
    <text class="tiny" x="418" y="714">Scope, Unit Economics, Channel</text>
    <text class="tiny" x="418" y="735">Organic, Measurement, Compliance</text>

    <rect class="doc-evolve shadow" x="688" y="628" width="248" height="132" rx="18"/>
    <text class="doc-title" x="716" y="660">extension_cases.md</text>
    <text class="doc-sub" x="716" y="686">13개 확장 시나리오</text>
    <text class="tiny" x="716" y="714">새 채널, 앱, 리테일 미디어</text>
    <text class="tiny" x="716" y="735">AEO/GEO, 규제, 서버 이벤트</text>

    <rect class="doc-evolve shadow" x="986" y="628" width="248" height="132" rx="18"/>
    <text class="doc-title" x="1014" y="660">conciseness_rules.md</text>
    <text class="doc-sub" x="1014" y="686">개념 경제와 중복 방지</text>
    <text class="tiny" x="1014" y="714">새 용어 추가 기준</text>
    <text class="tiny" x="1014" y="735">플랫폼 세부사항 축약</text>
  </g>

  <path class="flow" d="M340,507 H386"/>
  <path class="flow" d="M638,507 H684"/>
  <path class="flow" d="M936,507 H982"/>
  <path class="flow" d="M1234,507 H1280"/>
  <path class="flow-soft" d="M812,584 V624"/>
  <path class="flow-soft" d="M1110,584 V624"/>
  <path class="flow-soft" d="M514,628 C514,606 760,606 760,584"/>
  <path class="flow-soft" d="M514,628 C514,594 1110,594 1110,584"/>
  <path class="flow-dash" d="M1110,628 C1110,610 216,610 216,584"/>
  <path class="flow-dash" d="M812,760 C812,788 216,788 216,584"/>
  <text class="note" x="1060" y="790">확장과 간결성 규칙은 새 내용을 범위와 개념으로 되돌려 정규화한다</text>

  <rect class="frame shadow" x="48" y="840" width="1704" height="366" rx="18"/>
  <text class="section-title" x="76" y="878">3. 내용 분류 축과 의사결정 흐름</text>

  <g transform="translate(86 910)">
    <text class="lane-title" x="0" y="0">분류 축</text>
    <rect class="axis-blue" x="0" y="20" width="194" height="62" rx="14"/>
    <text class="chip-text" x="18" y="46">커머스 범위</text>
    <text class="tiny" x="18" y="66">판매 환경, 포함/제외</text>

    <rect class="axis-yellow" x="212" y="20" width="194" height="62" rx="14"/>
    <text class="chip-text" x="230" y="46">경제성</text>
    <text class="tiny" x="230" y="66">결제액, 마진, ROAS</text>

    <rect class="axis-green" x="424" y="20" width="194" height="62" rx="14"/>
    <text class="chip-text" x="442" y="46">채널과 노출</text>
    <text class="tiny" x="442" y="66">Paid, 포맷, 지면, 시점</text>

    <rect class="axis-teal" x="636" y="20" width="194" height="62" rx="14"/>
    <text class="chip-text" x="654" y="46">자연 발견</text>
    <text class="tiny" x="654" y="66">SEO, AEO, GEO</text>

    <rect class="axis-violet" x="848" y="20" width="194" height="62" rx="14"/>
    <text class="chip-text" x="866" y="46">측정 권위</text>
    <text class="tiny" x="866" y="66">이벤트, 주문, 정산, 증분성</text>

    <rect class="axis-pink" x="1060" y="20" width="194" height="62" rx="14"/>
    <text class="chip-text" x="1078" y="46">앱 측정</text>
    <text class="tiny" x="1078" y="66">MMP, SKAN, 딥링크</text>

    <rect class="axis-blue" x="1272" y="20" width="194" height="62" rx="14"/>
    <text class="chip-text" x="1290" y="46">상품 데이터</text>
    <text class="tiny" x="1290" y="66">피드, 카탈로그, ID 매칭</text>

    <rect class="axis-red" x="1484" y="20" width="128" height="62" rx="14"/>
    <text class="chip-text" x="1502" y="46">준수</text>
    <text class="tiny" x="1502" y="66">동의, 표시, 거래조건</text>
  </g>

  <g transform="translate(86 1030)">
    <text class="lane-title" x="0" y="0">데이터와 판단 흐름</text>
    <rect class="axis" x="0" y="26" width="178" height="72" rx="14"/>
    <text class="tiny-strong" x="18" y="54">광고/자연 노출</text>
    <text class="tiny" x="18" y="74">검색, DA, CRM, GEO</text>

    <path class="flow-soft" d="M184,62 H248"/>
    <rect class="axis" x="258" y="26" width="178" height="72" rx="14"/>
    <text class="tiny-strong" x="276" y="54">상품 데이터</text>
    <text class="tiny" x="276" y="74">피드, 가격, 재고, ID</text>

    <path class="flow-soft" d="M442,62 H506"/>
    <rect class="axis" x="516" y="26" width="178" height="72" rx="14"/>
    <text class="tiny-strong" x="534" y="54">전환 이벤트</text>
    <text class="tiny" x="534" y="74">픽셀, SDK, 서버 이벤트</text>

    <path class="flow-soft" d="M700,62 H764"/>
    <rect class="axis" x="774" y="26" width="178" height="72" rx="14"/>
    <text class="tiny-strong" x="792" y="54">주문 DB</text>
    <text class="tiny" x="792" y="74">확정 주문, 고객 상태</text>

    <path class="flow-soft" d="M958,62 H1022"/>
    <rect class="axis" x="1032" y="26" width="178" height="72" rx="14"/>
    <text class="tiny-strong" x="1050" y="54">정산/마진</text>
    <text class="tiny" x="1050" y="74">수수료, 환불, 비용</text>

    <path class="flow-soft" d="M1216,62 H1280"/>
    <path class="guard" d="M1370,26 L1466,62 L1370,98 L1274,62 Z"/>
    <text class="tiny-strong" x="1318" y="58">준수 게이트</text>
    <text class="tiny" x="1328" y="78">동의/표시/근거</text>

    <path class="flow-soft" d="M1470,62 H1534"/>
    <rect class="axis-violet" x="1544" y="26" width="104" height="72" rx="14"/>
    <text class="tiny-strong" x="1562" y="54">결정</text>
    <text class="tiny" x="1562" y="74">증액/중단</text>
  </g>

  <g transform="translate(86 1160)">
    <text class="lane-title" x="0" y="0">검증 루프</text>
    <rect class="doc-verify" x="0" y="24" width="276" height="54" rx="14"/>
    <text class="chip-text" x="18" y="57">CQ: 63개 PASS/FAIL 질문</text>
    <path class="flow-soft" d="M286,51 H392"/>
    <rect class="doc-evolve" x="402" y="24" width="292" height="54" rx="14"/>
    <text class="chip-text" x="420" y="57">Extension: 변화 시나리오 13개</text>
    <path class="flow-soft" d="M704,51 H810"/>
    <rect class="doc-evolve" x="820" y="24" width="314" height="54" rx="14"/>
    <text class="chip-text" x="838" y="57">Conciseness: 중복 제거와 개념 경제</text>
    <path class="flow-dash" d="M1144,51 C1280,51 1280,-610 216,-610"/>
    <text class="note" x="1188" y="70">새 요구는 다시 범위와 개념으로 정규화</text>
  </g>

  <text class="note" x="64" y="1244">생성 파일: .onto/domains/commerce-performance-marketing-kr/domain_structure.svg</text>
</svg>
